<svg 
 xmlns="http://www.w3.org/2000/svg"
 xmlns:xlink="http://www.w3.org/1999/xlink"
 width="13px" height="14px">
<path fill-rule="evenodd"  
 d="M8.216,4.606 L2.970,4.606 C2.730,4.606 2.533,4.409 2.533,4.168 C2.533,3.928 2.730,3.731 2.970,3.731 L8.216,3.731 C8.457,3.731 8.654,3.928 8.654,4.168 C8.654,4.409 8.457,4.606 8.216,4.606 L8.216,4.606 ZM5.156,7.229 L2.970,7.229 C2.730,7.229 2.533,7.032 2.533,6.791 C2.533,6.551 2.730,6.354 2.970,6.354 L5.156,6.354 C5.397,6.354 5.593,6.551 5.593,6.791 C5.593,7.032 5.397,7.229 5.156,7.229 L5.156,7.229 ZM11.613,11.267 C11.331,10.985 10.954,10.825 10.575,10.825 L10.506,10.825 L9.881,8.950 C9.905,8.929 9.927,8.907 9.951,8.885 C10.233,8.603 10.394,8.226 10.394,7.847 C10.394,7.469 10.231,7.090 9.951,6.808 C9.670,6.527 9.292,6.366 8.913,6.366 C8.534,6.366 8.157,6.528 7.875,6.808 C7.593,7.090 7.432,7.468 7.432,7.847 C7.432,8.224 7.595,8.603 7.875,8.885 C7.897,8.907 7.921,8.928 7.943,8.950 L7.320,10.827 L7.077,10.827 C6.700,10.827 6.321,10.989 6.039,11.269 C5.757,11.551 5.597,11.928 5.597,12.307 C5.597,12.700 5.742,13.067 6.005,13.342 C6.280,13.629 6.661,13.788 7.079,13.788 L10.576,13.788 C10.954,13.788 11.333,13.626 11.615,13.346 C11.896,13.064 12.057,12.686 12.057,12.307 C12.057,11.928 11.893,11.549 11.613,11.267 L11.613,11.267 ZM8.913,7.229 C9.260,7.229 9.531,7.500 9.531,7.847 C9.531,8.193 9.260,8.465 8.913,8.465 C8.566,8.465 8.295,8.193 8.295,7.847 C8.295,7.500 8.566,7.229 8.913,7.229 L8.913,7.229 ZM8.732,9.314 C8.792,9.322 8.852,9.326 8.913,9.326 C8.973,9.326 9.033,9.320 9.092,9.314 L9.594,10.823 L8.228,10.823 L8.732,9.314 ZM10.575,12.922 L7.077,12.922 C6.731,12.922 6.459,12.650 6.459,12.304 C6.459,11.957 6.731,11.686 7.077,11.686 L10.575,11.686 C10.921,11.686 11.193,11.957 11.193,12.304 C11.193,12.650 10.921,12.922 10.575,12.922 L10.575,12.922 Z"/>
<path fill-rule="evenodd" 
 d="M4.810,13.995 L1.313,13.995 C0.589,13.995 0.001,13.407 0.001,12.683 L0.001,1.317 C0.001,0.592 0.589,0.005 1.313,0.005 L10.931,0.005 C11.655,0.005 12.242,0.592 12.242,1.317 L12.242,6.563 C12.242,6.803 12.046,7.000 11.805,7.000 C11.564,7.000 11.368,6.803 11.368,6.563 L11.368,1.317 C11.368,1.076 11.172,0.879 10.931,0.879 L1.313,0.879 C1.072,0.879 0.876,1.074 0.876,1.317 L0.876,12.683 C0.876,12.924 1.072,13.120 1.313,13.120 L4.810,13.120 C5.051,13.120 5.248,13.317 5.248,13.557 C5.248,13.798 5.051,13.995 4.810,13.995 L4.810,13.995 Z"/>
</svg>