<svg 
 xmlns="http://www.w3.org/2000/svg"
 xmlns:xlink="http://www.w3.org/1999/xlink"
 width="14px" height="14px">
<path fill-rule="evenodd"  
 d="M13.566,1.239 C13.510,0.998 13.268,0.847 13.026,0.903 L10.680,1.445 C10.523,1.483 10.397,1.601 10.351,1.756 C10.305,1.911 10.346,2.079 10.458,2.196 L10.970,2.727 L8.234,5.167 L6.814,3.822 C6.634,3.652 6.350,3.659 6.179,3.838 L3.131,7.033 C2.759,6.956 2.377,7.121 2.180,7.447 C1.982,7.772 2.010,8.186 2.250,8.482 C2.490,8.777 2.890,8.889 3.249,8.762 C3.608,8.635 3.848,8.295 3.848,7.915 C3.847,7.820 3.831,7.726 3.800,7.637 L6.520,4.784 L7.915,6.105 C8.085,6.265 8.348,6.269 8.523,6.114 L11.595,3.375 L12.178,3.978 C12.291,4.094 12.457,4.141 12.614,4.100 C12.770,4.060 12.894,3.939 12.936,3.783 L13.561,1.457 C13.580,1.386 13.582,1.311 13.565,1.239 L13.566,1.239 Z"/>
<path fill-rule="evenodd"  
 d="M12.245,5.840 C11.997,5.841 11.795,6.043 11.795,6.291 L11.795,9.856 C11.795,10.104 11.594,10.305 11.345,10.306 L1.447,10.306 C1.198,10.305 0.997,10.104 0.997,9.855 L0.997,1.758 C0.997,1.509 1.199,1.308 1.448,1.308 L8.908,1.308 C9.146,1.292 9.331,1.096 9.331,0.858 C9.331,0.620 9.146,0.423 8.908,0.408 L1.448,0.408 C0.701,0.407 0.097,1.011 0.097,1.757 L0.097,9.856 C0.097,10.601 0.702,11.206 1.447,11.206 L11.345,11.206 C12.091,11.206 12.695,10.601 12.695,9.856 L12.695,6.290 C12.695,6.042 12.493,5.841 12.245,5.840 L12.245,5.840 Z"/>
<path fill-rule="evenodd"  
 d="M11.992,12.711 L0.744,12.711 C0.506,12.727 0.321,12.924 0.321,13.161 C0.321,13.399 0.506,13.596 0.744,13.611 L11.991,13.611 C12.159,13.622 12.318,13.539 12.405,13.395 C12.492,13.251 12.492,13.071 12.405,12.928 C12.318,12.784 12.159,12.701 11.991,12.711 L11.992,12.711 Z"/>
</svg>