<svg 
 xmlns="http://www.w3.org/2000/svg"
 xmlns:xlink="http://www.w3.org/1999/xlink"
 width="15px" height="14px">
<path fill-rule="evenodd"
 d="M10.253,5.824 C10.457,5.620 10.781,5.620 10.984,5.824 C11.189,6.027 11.189,6.351 10.984,6.555 L6.996,10.543 C6.898,10.642 6.764,10.698 6.631,10.698 C6.497,10.698 6.363,10.649 6.265,10.543 L4.077,8.356 C3.873,8.152 3.873,7.828 4.077,7.624 C4.281,7.420 4.605,7.420 4.809,7.624 L6.631,9.446 L10.253,5.824 ZM13.045,2.173 C13.650,2.173 14.143,2.665 14.143,3.270 L14.143,12.196 C14.143,12.801 13.650,13.293 13.045,13.293 L2.017,13.293 C1.412,13.293 0.919,12.801 0.919,12.196 L0.919,3.270 C0.919,2.665 1.412,2.173 2.017,2.173 L4.633,2.173 C4.640,1.568 5.125,1.083 5.730,1.069 C5.794,0.513 6.272,0.070 6.849,0.070 L8.220,0.070 C8.797,0.070 9.275,0.513 9.332,1.069 C9.936,1.083 10.422,1.568 10.429,2.173 L13.045,2.173 ZM5.751,1.850 C5.569,1.850 5.414,1.997 5.407,2.180 L5.407,3.088 C5.407,3.277 5.562,3.432 5.751,3.432 L9.303,3.432 C9.493,3.432 9.648,3.277 9.648,3.088 L9.648,2.180 C9.641,1.997 9.486,1.850 9.303,1.850 L8.945,1.850 C8.734,1.850 8.558,1.674 8.558,1.463 L8.558,1.195 C8.558,1.005 8.403,0.851 8.213,0.851 L6.849,0.851 C6.659,0.851 6.504,1.005 6.504,1.195 L6.504,1.463 C6.504,1.674 6.328,1.850 6.117,1.850 L5.751,1.850 ZM13.369,12.196 L13.369,3.270 C13.369,3.095 13.221,2.947 13.045,2.947 L10.429,2.947 L10.429,3.080 C10.429,3.699 9.930,4.199 9.310,4.199 L5.751,4.199 C5.133,4.199 4.633,3.699 4.633,3.080 L4.633,2.947 L2.017,2.947 C1.841,2.947 1.693,3.095 1.693,3.270 L1.693,12.196 C1.693,12.372 1.841,12.520 2.017,12.520 L13.045,12.520 C13.221,12.520 13.369,12.372 13.369,12.196 L13.369,12.196 Z"/>
</svg>