<svg 
 xmlns="http://www.w3.org/2000/svg"
 xmlns:xlink="http://www.w3.org/1999/xlink"
 width="14px" height="15px">
<path fill-rule="evenodd" 
 d="M6.125,13.196 C6.422,13.196 6.662,13.436 6.662,13.733 C6.662,14.030 6.422,14.270 6.125,14.270 L0.687,14.270 C0.392,14.270 0.152,14.029 0.152,13.734 L0.152,3.088 C0.152,2.791 0.392,2.551 0.689,2.551 C0.985,2.551 1.226,2.791 1.226,3.088 L1.226,13.195 L6.124,13.195 L6.125,13.196 Z"/>
<path fill-rule="evenodd"  
 d="M6.909,11.105 C7.190,11.105 7.419,11.333 7.419,11.614 C7.419,11.896 7.190,12.124 6.909,12.124 L3.070,12.124 C2.533,12.124 2.097,11.688 2.097,11.151 L2.097,1.885 C2.097,1.348 2.533,0.913 3.070,0.913 L11.409,0.913 C11.947,0.913 12.382,1.348 12.382,1.885 L12.382,6.386 C12.382,6.667 12.154,6.895 11.872,6.895 C11.591,6.895 11.363,6.667 11.363,6.386 L11.363,1.932 L3.117,1.932 L3.117,11.105 L6.909,11.105 Z"/>
<path fill-rule="evenodd" 
 d="M4.994,4.665 C4.713,4.665 4.485,4.437 4.485,4.155 C4.485,3.874 4.713,3.646 4.994,3.646 L8.304,3.646 C8.585,3.646 8.813,3.874 8.813,4.155 C8.813,4.437 8.585,4.665 8.304,4.665 L4.994,4.665 Z"/>
<path fill-rule="evenodd"  
 d="M4.916,7.028 C4.635,7.028 4.407,6.800 4.407,6.518 C4.407,6.237 4.635,6.009 4.916,6.009 L7.200,6.009 C7.383,6.009 7.551,6.106 7.642,6.263 C7.733,6.421 7.733,6.615 7.642,6.773 C7.551,6.931 7.383,7.028 7.200,7.028 L4.916,7.028 Z"/>
<path fill-rule="evenodd"  
 d="M9.806,9.542 L12.988,9.542 C13.269,9.542 13.497,9.770 13.497,10.051 C13.497,10.333 13.269,10.561 12.988,10.561 L9.784,10.561 L10.578,11.355 C10.777,11.554 10.777,11.877 10.578,12.076 C10.379,12.275 10.056,12.275 9.857,12.076 L8.219,10.438 C8.120,10.338 8.066,10.203 8.071,10.062 C8.066,9.922 8.120,9.786 8.219,9.687 L9.857,8.049 C10.056,7.850 10.379,7.850 10.578,8.049 C10.777,8.248 10.777,8.571 10.578,8.770 L9.806,9.542 Z"/>
</svg>