<svg 
 xmlns="http://www.w3.org/2000/svg"
 xmlns:xlink="http://www.w3.org/1999/xlink"
 width="16px" height="14px">
<path fill-rule="evenodd"  
 d="M8.540,2.565 L8.540,10.355 C8.540,10.671 8.281,10.930 7.965,10.930 C7.649,10.930 7.390,10.671 7.390,10.355 L7.390,2.440 L4.623,5.221 C4.398,5.445 4.032,5.445 3.809,5.221 C3.585,4.996 3.585,4.630 3.809,4.408 L7.470,0.731 C7.589,0.612 7.748,0.557 7.904,0.564 C8.061,0.557 8.218,0.612 8.337,0.731 L12.008,4.398 C12.232,4.622 12.232,4.989 12.008,5.211 C11.784,5.435 11.417,5.435 11.195,5.211 L8.540,2.565 Z"/>
<path fill-rule="evenodd"  
 d="M0.544,11.714 L0.544,8.032 C0.544,7.692 0.819,7.418 1.158,7.418 C1.497,7.418 1.772,7.692 1.772,8.032 L1.772,11.714 C1.772,12.054 2.046,12.328 2.385,12.328 L13.432,12.328 C13.771,12.328 14.046,12.054 14.046,11.714 L14.046,8.032 C14.046,7.692 14.320,7.418 14.659,7.418 C14.999,7.418 15.273,7.692 15.273,8.032 L15.273,11.714 C15.273,12.729 14.446,13.555 13.432,13.555 L2.385,13.555 C1.371,13.555 0.544,12.729 0.544,11.714 L0.544,11.714 Z"/>
</svg>