<svg version="1.1" xmlns="http://www.w3.org/2000/svg" viewBox="0 0 309.7 300" fill="currentColor" width="1em" height="1em">
<path class="st0" d="M279.2,1.9H28.5c-2.9,0-5.8,1-7.7,2.9c-4.8,3.9-4.8,11.6-1,15.5l89,99.7v103.5c0,2.9,1,6.8,3.9,8.7l22.3,18.4
	c5.8,3.9,12.6,2.9,16.5-1.9c3.9-5.8,2.9-12.6-1.9-16.5l-18.4-14.5V115.1c0-2.9-1-5.8-2.9-7.7L53.7,24.1H254l-74.5,83.2
	c-1.9,1.9-2.9,4.8-2.9,7.7v171.3c0,6.8,5.8,11.6,11.6,11.6s10.6-5.8,10.6-11.6V119.9l89-98.7c1.9-1.9,2.9-4.8,2.9-7.7
	C290.8,6.7,285,1.9,279.2,1.9z"/>
</svg>
