<svg 
 xmlns="http://www.w3.org/2000/svg"
 xmlns:xlink="http://www.w3.org/1999/xlink"
 width="20px" height="22px">
<path fill-rule="evenodd"  fill="rgb(255, 255, 255)"
 d="M6.997,20.764 L5.925,19.686 L14.005,19.686 L12.932,20.764 C11.359,22.418 8.642,22.418 6.997,20.764 L6.997,20.764 ZM17.151,10.556 L17.151,7.967 C17.151,4.229 14.291,1.138 10.716,0.778 L10.716,0.706 C10.716,0.275 10.430,-0.013 10.001,-0.013 C9.572,-0.013 9.285,0.275 9.285,0.706 L9.285,0.778 C5.639,1.138 2.850,4.229 2.850,7.967 L2.850,10.556 C2.850,13.503 1.849,16.451 -0.010,18.751 L20.012,18.751 C18.152,16.451 17.151,13.503 17.151,10.556 L17.151,10.556 ZM4.280,10.556 L4.280,7.967 C4.280,4.948 6.497,2.504 9.429,2.216 L10.072,2.144 L10.573,2.216 C13.504,2.504 15.721,4.948 15.721,7.967 L15.721,10.556 C15.721,12.928 16.293,15.229 17.366,17.314 L2.635,17.314 C3.708,15.229 4.280,12.928 4.280,10.556 L4.280,10.556 Z"/>
</svg>