<svg 
 xmlns="http://www.w3.org/2000/svg"
 xmlns:xlink="http://www.w3.org/1999/xlink"
 width="28px" height="26px">
<path fill-rule="evenodd"  fill="rgb(255, 255, 255)"
 d="M16.650,6.107 L16.654,6.107 L16.657,6.107 C16.862,6.104 17.053,6.031 17.184,5.907 L18.831,4.324 C18.974,4.187 19.056,4.000 19.062,3.799 C19.067,3.599 18.993,3.409 18.856,3.264 C18.719,3.119 18.534,3.036 18.335,3.032 L18.330,3.032 C18.125,3.032 17.942,3.103 17.803,3.239 L16.155,4.820 C16.011,4.958 15.929,5.145 15.924,5.346 C15.920,5.547 15.993,5.737 16.129,5.881 C16.260,6.019 16.450,6.102 16.650,6.107 L16.650,6.107 ZM4.093,3.851 C4.229,4.047 4.459,4.164 4.710,4.164 C4.863,4.164 5.009,4.119 5.131,4.035 C5.295,3.919 5.403,3.747 5.437,3.551 C5.472,3.354 5.428,3.154 5.313,2.990 L4.132,1.292 C3.993,1.092 3.765,0.972 3.521,0.972 C3.369,0.972 3.220,1.019 3.096,1.107 C2.932,1.222 2.822,1.394 2.788,1.592 C2.753,1.789 2.797,1.988 2.911,2.152 L4.093,3.851 ZM10.677,3.044 C10.747,3.066 10.819,3.077 10.892,3.077 C11.013,3.077 11.135,3.046 11.245,2.987 C11.422,2.892 11.552,2.736 11.609,2.548 L12.089,0.978 C12.147,0.786 12.128,0.583 12.035,0.406 C11.942,0.229 11.785,0.099 11.596,0.040 C11.525,0.018 11.450,0.007 11.376,0.006 C11.254,0.007 11.135,0.037 11.028,0.094 C10.852,0.188 10.723,0.345 10.665,0.537 L10.185,2.107 C10.126,2.299 10.145,2.501 10.239,2.679 C10.332,2.856 10.488,2.986 10.677,3.044 L10.677,3.044 ZM0.693,9.819 L1.598,9.908 L1.607,9.908 C2.037,9.908 2.364,9.631 2.402,9.234 C2.422,9.034 2.363,8.839 2.236,8.684 C2.110,8.529 1.931,8.433 1.733,8.414 L0.840,8.326 C0.816,8.323 0.793,8.322 0.769,8.322 C0.388,8.322 0.061,8.619 0.024,8.999 C0.004,9.199 0.063,9.394 0.190,9.549 C0.316,9.704 0.495,9.800 0.693,9.819 L0.693,9.819 ZM26.546,17.344 C25.832,16.610 24.929,16.114 23.933,15.911 L23.762,15.876 L23.746,15.701 C23.581,13.866 22.806,12.204 21.506,10.896 C20.781,10.167 19.935,9.598 18.988,9.203 C18.044,8.810 17.048,8.610 16.029,8.610 C15.893,8.610 15.754,8.614 15.618,8.621 L15.450,8.630 L15.389,8.477 C14.648,6.277 12.788,4.659 10.535,4.255 C10.169,4.189 9.798,4.156 9.427,4.155 C8.146,4.155 6.909,4.550 5.848,5.296 C4.471,6.262 3.552,7.707 3.259,9.365 C3.007,10.789 3.251,12.270 3.947,13.533 C3.991,13.614 4.051,13.686 4.123,13.748 L4.281,13.879 L4.174,14.054 C3.852,14.586 3.673,15.198 3.658,15.822 L3.654,15.991 L3.496,16.043 C2.638,16.326 1.867,16.838 1.269,17.524 C0.456,18.455 0.008,19.650 0.008,20.890 C0.008,23.703 2.283,25.992 5.080,25.992 L22.939,25.992 C24.272,25.992 25.534,25.464 26.493,24.505 C27.459,23.540 27.990,22.260 27.990,20.903 C27.990,19.564 27.477,18.301 26.546,17.344 L26.546,17.344 ZM4.725,9.628 C4.949,8.364 5.650,7.262 6.699,6.525 C7.508,5.957 8.452,5.657 9.429,5.657 C9.710,5.657 9.994,5.683 10.274,5.732 C11.894,6.022 13.236,7.112 13.862,8.647 L13.960,8.887 L13.714,8.964 C11.784,9.569 10.187,10.884 9.218,12.666 L9.105,12.873 L8.900,12.761 C8.396,12.487 7.813,12.342 7.214,12.342 C6.605,12.342 6.014,12.491 5.504,12.774 L5.292,12.891 L5.181,12.675 C4.697,11.731 4.539,10.678 4.725,9.628 L4.725,9.628 ZM25.442,23.440 C24.766,24.117 23.877,24.491 22.939,24.491 L5.080,24.491 C3.106,24.491 1.500,22.876 1.500,20.890 C1.500,19.100 2.825,17.567 4.583,17.324 C4.792,17.295 4.979,17.179 5.098,17.004 C5.217,16.828 5.256,16.610 5.207,16.404 C5.168,16.242 5.148,16.077 5.148,15.911 C5.148,14.766 6.074,13.834 7.211,13.834 C7.834,13.834 8.418,14.113 8.811,14.599 C8.953,14.775 9.165,14.876 9.392,14.876 C9.435,14.876 9.478,14.872 9.521,14.865 C9.787,14.817 10.007,14.628 10.094,14.370 C10.963,11.823 13.345,10.111 16.022,10.111 C19.477,10.111 22.287,12.940 22.287,16.416 L22.288,16.495 C22.283,16.949 22.595,17.300 23.014,17.311 C23.950,17.336 24.827,17.721 25.481,18.395 C26.137,19.069 26.498,19.959 26.498,20.903 C26.498,21.858 26.124,22.759 25.442,23.440 L25.442,23.440 Z"/>
</svg>