<svg 
 xmlns="http://www.w3.org/2000/svg"
 xmlns:xlink="http://www.w3.org/1999/xlink"
 width="26px" height="26px">
<path fill-rule="evenodd"  fill="rgb(255, 255, 255)"
 d="M12.950,26.015 C9.306,26.012 5.829,24.475 3.366,21.777 L2.852,21.222 L3.366,20.668 C5.831,17.972 9.306,16.435 12.950,16.430 C16.583,16.430 20.086,17.974 22.534,20.668 L23.048,21.222 L22.535,21.777 C20.071,24.475 16.595,26.012 12.951,26.015 L12.950,26.015 ZM5.116,21.222 C7.231,23.238 10.035,24.363 12.950,24.365 C15.865,24.363 18.669,23.238 20.784,21.222 C18.669,19.207 15.865,18.082 12.950,18.080 C10.034,18.082 7.231,19.207 5.116,21.223 L5.116,21.222 ZM12.963,15.241 C10.672,15.241 8.803,13.366 8.803,11.069 C8.803,8.772 10.672,6.896 12.963,6.896 C15.254,6.896 17.123,8.772 17.123,11.069 C17.120,13.375 15.258,15.242 12.964,15.241 L12.963,15.241 ZM12.963,8.547 C11.577,8.551 10.455,9.677 10.449,11.069 C10.455,12.461 11.577,13.587 12.963,13.591 C14.349,13.588 15.472,12.461 15.478,11.069 C15.477,10.400 15.212,9.758 14.740,9.285 C14.268,8.812 13.629,8.547 12.963,8.547 L12.963,8.547 Z"/>
<path fill-rule="evenodd"  fill="rgb(255, 255, 255)"
 d="M2.958,18.369 C2.089,16.727 1.637,14.895 1.642,13.035 C1.642,6.751 6.737,1.654 12.990,1.654 C19.244,1.654 24.339,6.764 24.339,13.035 C24.339,14.897 23.878,16.732 23.023,18.356 C23.443,18.752 23.839,19.175 24.208,19.624 C25.377,17.627 25.990,15.352 25.984,13.035 C25.984,5.840 20.152,-0.009 12.977,-0.009 C5.815,0.003 -0.004,5.852 -0.004,13.035 C-0.004,15.359 0.615,17.643 1.786,19.624 C2.141,19.189 2.537,18.766 2.958,18.370 L2.958,18.369 Z"/>
</svg>