<svg 
 xmlns="http://www.w3.org/2000/svg"
 xmlns:xlink="http://www.w3.org/1999/xlink"
 >
<path 
 d="M19.212,17.562 C19.212,20.010 17.263,21.994 14.859,21.994 C12.455,21.994 10.506,20.010 10.506,17.562 L10.504,17.566 C10.504,15.555 12.003,13.663 13.992,13.226 L13.992,6.671 C13.992,6.323 14.269,6.042 14.611,6.042 L15.117,6.042 C15.459,6.042 15.736,6.323 15.736,6.671 L15.736,7.815 L16.828,7.815 C17.189,7.815 17.480,8.111 17.480,8.477 L17.480,8.926 C17.480,9.291 17.189,9.587 16.828,9.587 L15.736,9.587 L15.736,13.221 C17.720,13.633 19.212,15.420 19.212,17.562 ZM13.131,17.568 C13.131,18.547 13.911,19.341 14.872,19.341 C15.833,19.341 16.612,18.548 16.612,17.568 C16.612,16.589 15.833,15.795 14.872,15.795 C13.911,15.795 13.131,16.589 13.131,17.568 Z"/>
<path 
 d="M14.999,28.041 C7.180,28.041 0.858,21.731 0.858,13.928 C0.858,6.124 7.180,0.000 14.999,0.000 C22.817,0.000 29.140,6.310 29.140,14.114 C29.140,21.917 22.817,28.041 14.999,28.041 ZM14.999,1.865 C8.301,1.865 2.726,7.243 2.726,14.114 C2.726,20.796 8.114,26.362 14.999,26.362 C21.697,26.362 27.271,20.985 27.271,14.114 C27.271,7.243 21.697,1.865 14.999,1.865 Z"/>
</svg>