<svg 
 xmlns="http://www.w3.org/2000/svg"
 xmlns:xlink="http://www.w3.org/1999/xlink"
 >
<path 
 d="M13.999,28.000 C6.258,28.000 -0.001,21.699 -0.001,13.907 C-0.001,6.115 6.258,0.000 13.999,0.000 C21.739,0.000 27.998,6.301 27.998,14.093 C27.998,21.884 21.739,28.000 13.999,28.000 L13.999,28.000 ZM13.999,1.862 C7.368,1.862 1.849,7.232 1.849,14.093 C1.849,20.765 7.183,26.323 13.999,26.323 C20.630,26.323 26.148,20.953 26.148,14.093 C26.148,7.232 20.630,1.862 13.999,1.862 L13.999,1.862 ZM13.999,15.395 C11.055,15.395 8.665,12.989 8.665,10.025 C8.665,7.062 11.055,4.454 13.999,4.454 C16.942,4.454 19.333,6.861 19.333,9.824 C19.333,12.787 16.942,15.395 13.999,15.395 L13.999,15.395 ZM13.999,6.301 C11.980,6.301 10.499,7.962 10.499,9.824 C10.499,11.686 11.980,13.533 13.999,13.533 C16.017,13.533 17.499,11.872 17.499,10.010 C17.499,8.147 16.017,6.301 13.999,6.301 L13.999,6.301 ZM13.999,28.000 C9.758,28.000 5.905,26.153 3.315,23.001 L2.946,22.441 L3.315,21.881 C5.705,18.173 9.758,15.952 14.183,15.952 C18.424,15.952 22.464,17.984 24.867,21.696 L25.236,22.256 L24.867,22.816 C22.279,26.137 18.239,28.000 13.999,28.000 L13.999,28.000 ZM5.165,22.240 C7.371,24.647 10.683,26.134 13.999,26.134 C17.499,26.134 20.814,24.643 23.017,22.051 C20.814,19.277 17.683,17.786 14.183,17.786 C10.683,17.786 7.368,19.462 5.165,22.240 L5.165,22.240 Z"/>
</svg>