<svg 
 xmlns="http://www.w3.org/2000/svg"
 xmlns:xlink="http://www.w3.org/1999/xlink"
 width="24px" height="24px">
<path
 d="M10.652,8.623 C10.652,9.613 9.841,10.425 8.850,10.425 L2.454,10.425 C1.460,10.423 0.654,9.616 0.653,8.622 L0.653,1.955 C0.653,0.963 1.464,0.154 2.454,0.154 L8.853,0.154 C9.841,0.154 10.652,0.964 10.652,1.954 L10.652,8.623 ZM10.652,20.043 C10.652,21.034 9.841,21.845 8.850,21.845 L2.454,21.845 C1.460,21.843 0.655,21.037 0.653,20.043 L0.653,13.374 C0.653,12.384 1.464,11.573 2.454,11.573 L8.853,11.573 C9.841,11.573 10.652,12.384 10.652,13.374 L10.652,20.043 ZM22.344,8.623 C22.344,9.613 21.533,10.425 20.543,10.425 L14.144,10.425 C13.151,10.422 12.347,9.616 12.345,8.623 L12.345,1.955 C12.345,0.963 13.155,0.154 14.148,0.154 L20.545,0.154 C21.533,0.154 22.345,0.964 22.345,1.954 L22.345,8.623 L22.344,8.623 ZM22.344,20.043 C22.344,21.034 21.533,21.845 20.543,21.845 L14.144,21.845 C13.151,21.842 12.347,21.037 12.345,20.043 L12.345,13.374 C12.345,12.384 13.156,11.573 14.148,11.573 L20.545,11.573 C21.533,11.573 22.344,12.384 22.344,13.374 L22.344,20.043 Z"/>
</svg>