<svg xmlns="http://www.w3.org/2000/svg" viewBox="0 0 12 9.64"><defs></defs><title>资源 33</title><g id="图层_2" data-name="图层 2"><g id="距离"><path class="cls-1" d="M.64,4.78H11.45a.59.59,0,0,1,.39.17.6.6,0,0,1,.16.48V9a.63.63,0,0,1-.16.52.62.62,0,0,1-.5.16H.66a.56.56,0,0,1-.48-.15h0A.6.6,0,0,1,0,9H0V5.42a.6.6,0,0,1,.16-.48.6.6,0,0,1,.48-.16Zm10.68.66H10.19V6.7h-.6V5.44H8.21v2.1h-.6V5.44H6.29V6.7h-.6V5.44H4.37v2.1h-.6V5.44H2.46V6.7h-.6V5.44H.66V9H11.34V5.44ZM.6.05V2.38H0V.05ZM12,.05V2.38h-.6V.05ZM9.89,0l1.18,1.19L9.89,2.37,9.56,2l.61-.61H1.93L2.55,2l-.33.33L1,1.19,2.22,0l.33.33L1.93,1h8.24L9.56.33,9.89,0Z"/></g></g></svg>