<svg 
 xmlns="http://www.w3.org/2000/svg"
 xmlns:xlink="http://www.w3.org/1999/xlink"
 width="14px" height="13px">
<path fill-rule="evenodd"  fill="rgb(102, 102, 102)"
 d="M13.650,4.214 C13.426,3.946 13.109,3.771 12.762,3.727 L12.762,3.190 C12.762,2.354 12.087,1.674 11.250,1.669 L7.232,1.669 L6.637,0.811 C6.434,0.554 6.125,0.404 5.798,0.401 L0.668,0.401 C0.261,0.506 -0.018,0.878 -0.005,1.298 L-0.005,10.613 C0.011,11.449 0.699,12.116 1.536,12.105 L11.289,12.105 C12.098,12.098 12.796,11.537 12.977,10.749 L13.952,5.434 C14.036,5.003 13.925,4.557 13.650,4.214 L13.650,4.214 ZM0.970,1.376 L5.847,1.376 L6.735,2.644 L11.270,2.644 C11.568,2.650 11.806,2.893 11.806,3.190 L11.806,3.707 L1.429,3.707 C1.300,3.710 1.172,3.729 1.048,3.766 L0.970,3.766 L0.970,1.376 ZM12.996,5.278 L12.021,10.593 C11.927,10.922 11.631,11.151 11.289,11.159 L1.536,11.159 C1.386,11.164 1.240,11.108 1.134,11.003 C1.027,10.897 0.968,10.753 0.970,10.603 L0.970,5.053 C0.978,4.947 1.027,4.848 1.108,4.779 C1.188,4.709 1.293,4.675 1.399,4.683 L12.518,4.683 C12.656,4.676 12.789,4.734 12.879,4.839 C12.984,4.959 13.027,5.121 12.996,5.278 L12.996,5.278 Z"/>
</svg>