<svg xmlns="http://www.w3.org/2000/svg" viewBox="0 0 13.97 14"><title>资源 39</title><g id="图层_2" data-name="图层 2"><g id="图层_49" data-name="图层 49"><path d="M13.49,6.1H8.31a.49.49,0,0,1-.49-.49V.49A.47.47,0,0,1,8,.11.49.49,0,0,1,8.4,0a7.48,7.48,0,0,1,2.93,1.26A6.7,6.7,0,0,1,14,5.51a.5.5,0,0,1-.11.41.45.45,0,0,1-.37.18Zm-4.68-1h4.05a5.75,5.75,0,0,0-4.05-4Zm0,0"/><path d="M6.82,14a8.64,8.64,0,0,1-3-.6l0,0A6.79,6.79,0,0,1,.36,5.06L.39,5A7.67,7.67,0,0,1,5.6.77a.5.5,0,0,1,.6.48V8h6.52a.52.52,0,0,1,.4.2.51.51,0,0,1,.07.45,9.77,9.77,0,0,1-1.76,3.2A5.91,5.91,0,0,1,6.82,14ZM4.15,12.47A7.59,7.59,0,0,0,6.82,13c1.1,0,3.73-.41,5.19-4H6.11a.92.92,0,0,1-.92-.92V1.88A6.76,6.76,0,0,0,1.3,5.36a5.79,5.79,0,0,0,2.85,7.11Zm0,0"/></g></g></svg>