<svg xmlns="http://www.w3.org/2000/svg" viewBox="0 0 14 14"><title>资源 40</title><g id="图层_2" data-name="图层 2"><g id="图层_51" data-name="图层 51"><path d="M7,0a7,7,0,1,0,7,7A7,7,0,0,0,7,0Zm3.76,11.91A6.13,6.13,0,0,1,7,13.19H7A6.16,6.16,0,0,1,3.29,12l-.1-.08L6.32,6.45l.11,0a1.82,1.82,0,0,0,1.2,0l.11,0,2,3.47L9.66,10A4,4,0,0,1,7,11a.39.39,0,0,0-.29.12.4.4,0,0,0-.12.29A.41.41,0,0,0,7,11.8H7a4.8,4.8,0,0,0,3-1.08l.13-.11.7,1.21ZM6,4.8a1,1,0,1,1,1,1,1,1,0,0,1-1-1Zm5.57,6.33-.13.15L10.75,10l.06-.08A4.76,4.76,0,0,0,11.8,7a.39.39,0,0,0-.12-.29.4.4,0,0,0-.29-.12.39.39,0,0,0-.29.12A.4.4,0,0,0,11,7a4,4,0,0,1-.56,2l-.12.21L8.39,5.93l.06-.07a1.87,1.87,0,0,0,.26-.54,1.78,1.78,0,0,0-1.2-2.21l-.1,0v-1a.41.41,0,1,0-.81,0v1l-.1,0a1.65,1.65,0,0,0-.59.31A1.79,1.79,0,0,0,5.6,5.9L5.66,6,2.57,11.32l-.13-.14a6.18,6.18,0,1,1,9.16,0Zm0,0"/></g></g></svg>