<svg xmlns="http://www.w3.org/2000/svg" viewBox="0 0 11.94 12"><defs><style>.cls-1{fill:#999;}</style></defs><title>资源 29</title><g id="图层_2" data-name="图层 2"><g id="标绘"><path class="cls-1" d="M10.86,11.26H6.58a.31.31,0,0,1,0-.61h4V1.23H1.23V5.51a.29.29,0,0,1-.31.31.29.29,0,0,1-.3-.31V.92a.28.28,0,0,1,.3-.3h9.94a.29.29,0,0,1,.31.3V11a.29.29,0,0,1-.31.31Z"/><path class="cls-1" d="M.92,12a.32.32,0,0,1-.18-.06.29.29,0,0,1-.12-.25V9.85a.33.33,0,0,1,.09-.22L6.28,3.48a.24.24,0,0,1,.21-.1.3.3,0,0,1,.22.1L8.34,5.11a.3.3,0,0,1,0,.43l-5.6,6a.17.17,0,0,1-.16.09L1,12Zm.31-2v1.35l1.14-.24L7.69,5.32l-1.2-1.2-1,1.14Z"/><path class="cls-1" d="M6.58,6.84a.27.27,0,0,1-.21-.09L5,5.39A.29.29,0,0,1,5,5a.3.3,0,0,1,.43,0L6.8,6.31a.31.31,0,0,1,0,.44.28.28,0,0,1-.22.09ZM1.05,2.09a1,1,0,0,1-1-1A1,1,0,0,1,1.05,0a1,1,0,0,1,1,1.05,1,1,0,0,1-1,1m9.84,0a1,1,0,0,1-1-1,1,1,0,1,1,2.09,0,1,1,0,0,1-1,1m0,9.85a1,1,0,1,1,1-1,1,1,0,0,1-1,1"/></g></g></svg>