<svg xmlns="http://www.w3.org/2000/svg" viewBox="0 0 11.52 12"><defs></defs><title>资源 28</title><g id="图层_2" data-name="图层 2"><g id="线标"><path class="cls-1" d="M.43,12a.41.41,0,0,1-.26-.09A.37.37,0,0,1,0,11.57V9a.44.44,0,0,1,.13-.3L7.89.13A.32.32,0,0,1,8.19,0a.39.39,0,0,1,.3.13L10.76,2.4a.42.42,0,0,1,0,.6L3,11.4a.24.24,0,0,1-.22.13L.51,12ZM.86,9.17v1.89l1.58-.35,7.42-8L8.19,1,6.73,2.61Z"/><path class="cls-1" d="M8.31,4.8A.39.39,0,0,1,8,4.67L6.13,2.78a.42.42,0,1,1,.6-.6L8.61,4.07a.4.4,0,0,1,0,.6.37.37,0,0,1-.3.13Z"/><rect class="cls-1" x="0.13" y="11.16" width="11.39" height="0.84" rx="0.4" ry="0.4"/></g></g></svg>