<svg xmlns="http://www.w3.org/2000/svg" viewBox="0 0 17 17"><defs><style>.cls-1{fill:#888;}</style></defs><title>资源 21</title><g id="图层_2" data-name="图层 2"><g id="切换地图"><path class="cls-1" d="M8.5,0A8.5,8.5,0,1,0,17,8.5,8.51,8.51,0,0,0,8.5,0Zm0,16.15A7.65,7.65,0,1,1,16.15,8.5,7.66,7.66,0,0,1,8.5,16.15Z"/><path class="cls-1" d="M2.05,5.17h3L7.76,7.55h2.45V9.93L5.3,15.71,4,14.88l.19-4.29L2.05,10Z"/><path class="cls-1" d="M3.13,3l2,.68L7.83,2.38,8.5.8A7.14,7.14,0,0,0,3.13,3Z"/><path class="cls-1" d="M11.87,1.65,10.61,2.87l.44,1.89,2,.83,1.18,1.27.53,2.48-2.44,6.21,3.28-2.71,1.14-5L15.3,4.07,12.63,1.65Z"/></g></g></svg>