<svg xmlns="http://www.w3.org/2000/svg" viewBox="0 0 13.87 16"><title>资源 38</title><g id="图层_2" data-name="图层 2"><g id="图层_55" data-name="图层 55"><path d="M9.29,9.09H2.85c-.12,0-.21.16-.21.35s.09.35.21.35H9.29c.12,0,.21-.16.21-.35s-.09-.35-.21-.35Zm0-1.63H2.85c-.12,0-.21.16-.21.35s.09.35.21.35H9.29c.12,0,.21-.16.21-.35s-.09-.35-.21-.35Zm0-1.63H2.85c-.12,0-.21.16-.21.35s.09.35.21.35H9.29c.12,0,.21-.16.21-.35s-.09-.35-.21-.35Zm0,0"/><path d="M13.87,2a2,2,0,0,0-2-2H2A2,2,0,0,0,0,2V13.8a.55.55,0,0,0,.16.39l1.6,1.59a.52.52,0,0,0,.74,0l1.63-1.62,1.69,1.68a.52.52,0,0,0,.74,0l1.7-1.68L10,15.85a.52.52,0,0,0,.74,0l1.53-1.52a.55.55,0,0,0,.16-.39V4A2,2,0,0,0,13.87,2ZM10.42,14.86,8.68,13.14a.53.53,0,0,0-.75,0L6.2,14.86,4.46,13.14a.53.53,0,0,0-.75,0L2,14.8.94,13.71V1.88A.94.94,0,0,1,1.86.93h0a1,1,0,0,1,1,.95,1,1,0,0,1-1,.95.56.56,0,0,0,0,1.12h9.56v9.9ZM11.63,3.05,3.19,3a.94.94,0,0,0,.51-.91A2.09,2.09,0,0,0,3.47,1h8.46A1.19,1.19,0,0,1,13,2a1.11,1.11,0,0,1-1.09,1Zm0,0"/></g></g></svg>