<svg xmlns="http://www.w3.org/2000/svg" xmlns:xlink="http://www.w3.org/1999/xlink" viewBox="0 0 16.36 16.96"><defs><style>.cls-1{fill:none;}.cls-2{clip-path:url(#clip-path);}.cls-3{fill:#888;}</style><clipPath id="clip-path" transform="translate(0 -0.01)"><rect class="cls-1" width="16.36" height="17"/></clipPath></defs><title>资源 19</title><g id="图层_2" data-name="图层 2"><g id="缩小"><g class="cls-2"><path class="cls-3" d="M16.18,15.94l-2.63-2.63a7.79,7.79,0,0,0,2.19-5.43,7.89,7.89,0,1,0-3.09,6.24l2.68,2.68a.6.6,0,0,0,.42.18.62.62,0,0,0,.43-.18.6.6,0,0,0,0-.86Zm-15-8.06a6.66,6.66,0,1,1,6.66,6.66A6.67,6.67,0,0,1,1.21,7.88Z" transform="translate(0 -0.01)"/></g><path class="cls-3" d="M10.63,7.28H5.15a.61.61,0,1,0,0,1.21h5.48a.61.61,0,0,0,0-1.21Z" transform="translate(0 -0.01)"/></g></g></svg>