<svg xmlns="http://www.w3.org/2000/svg" viewBox="0 0 4.86 12"><defs><style>.cls-1{fill:#999;}</style></defs><title>资源 32</title><g id="图层_2" data-name="图层 2"><g id="测量"><path class="cls-1" d="M4.86.64v10.8h0a.63.63,0,0,1-.16.39.6.6,0,0,1-.48.16H.68a.64.64,0,0,1-.52-.16.62.62,0,0,1-.16-.5H0V.66H0A.6.6,0,0,1,.15.18v0A.6.6,0,0,1,.62,0h3.6A.6.6,0,0,1,4.7.16a.6.6,0,0,1,.16.48ZM4.2,11.32V10.19H2.94v-.6H4.2V8.21H2.1v-.6H4.2V6.29H2.94v-.6H4.2V4.37H2.1v-.6H4.2V2.46H2.94v-.6H4.2V.67H.67V11.34H4.2v0Z"/></g></g></svg>