<svg xmlns="http://www.w3.org/2000/svg" viewBox="0 0 14.68 17"><defs><style>.cls-1{fill:#888;}.cls-2{fill:none;}</style></defs><title>资源 24</title><g id="图层_2" data-name="图层 2"><g id="注册资源"><path class="cls-1" d="M9.91,10.25H4.75a.53.53,0,0,1-.52-.53.52.52,0,0,1,.52-.52H9.91a.52.52,0,0,1,.53.52.53.53,0,0,1-.53.53"/><path class="cls-1" d="M7.33,12.83A.52.52,0,0,1,7,12.67a.56.56,0,0,1-.15-.37V7.14a.52.52,0,0,1,.52-.52.52.52,0,0,1,.53.52V12.3a.52.52,0,0,1-.16.37.51.51,0,0,1-.37.16"/><path class="cls-1" d="M11.26,0h-10A1.41,1.41,0,0,0,0,1.55V15.44A1.41,1.41,0,0,0,1.22,17H13.44a1.41,1.41,0,0,0,1.23-1.54V4.59Zm-.52,1,2.88,3.88V15.44a.64.64,0,0,1-.18.49H1.24a.57.57,0,0,1-.19-.49V1.55a.69.69,0,0,1,.17-.5Z"/><rect class="cls-2" width="14.67" height="17"/><path class="cls-1" d="M14.4,5.89H11.14A1.44,1.44,0,0,1,9.73,4.42V.92h1v3.5a.39.39,0,0,0,.36.42H14.4Z"/></g></g></svg>