<svg xmlns="http://www.w3.org/2000/svg" viewBox="0 0 11.95 12"><defs></defs><title>资源 31</title><g id="图层_2" data-name="图层 2"><g id="面积"><path class="cls-1" d="M11.61,9.07H2.87V.39A.38.38,0,0,0,2.48,0,.44.44,0,0,0,2,.39V9.85h9.52a.34.34,0,0,0,.26-.13.49.49,0,0,0,.13-.26.3.3,0,0,0-.32-.39Z"/><path class="cls-1" d="M9.91,8.41H4.24a.65.65,0,0,1-.65-.65V2a.65.65,0,0,1,.65-.65H9.91a.62.62,0,0,1,.66.65V7.76a.7.7,0,0,1-.66.65ZM4.37,7.63H9.78V2.15H4.37ZM0,5.93a.38.38,0,0,0,.39.4h1.5V5.54H.39A.38.38,0,0,0,0,5.93ZM0,4.3a.43.43,0,0,0,.39.4h1.5V3.91H.39A.43.43,0,0,0,0,4.3ZM0,9.46a.38.38,0,0,0,.39.39h1.5V9H.39A.5.5,0,0,0,0,9.46ZM0,2.61A.43.43,0,0,0,.39,3h1.5V2.22H.39A.42.42,0,0,0,0,2.61ZM0,7.7a.43.43,0,0,0,.39.39h1.5V7.24H.39A.44.44,0,0,0,0,7.7Zm2,3.84a.38.38,0,0,0,.39.39.41.41,0,0,0,.39-.39V10H2Zm5.22.07a.37.37,0,0,0,.39.39A.42.42,0,0,0,8,11.61v-1.5H7.24ZM9,10.11v1.5a.38.38,0,0,0,.39.39.42.42,0,0,0,.39-.39v-1.5Zm-3.46,1.5a.38.38,0,0,0,.39.39.43.43,0,0,0,.4-.39v-1.5H5.54Zm-1.69,0a.37.37,0,0,0,.39.39.43.43,0,0,0,.39-.39v-1.5H3.85Z"/></g></g></svg>