<svg xmlns="http://www.w3.org/2000/svg" viewBox="0 0 13.5 14"><title>资源 41</title><g id="图层_2" data-name="图层 2"><g id="图层_52" data-name="图层 52"><path d="M11.91,6.37a.5.5,0,0,1-.5-.5V1.13A.13.13,0,0,0,11.28,1H1.13A.13.13,0,0,0,1,1.13V12.87a.13.13,0,0,0,.13.13H5.64a.5.5,0,0,1,0,1H.5a.5.5,0,0,1-.5-.5V.5A.5.5,0,0,1,.5,0H11.91a.5.5,0,0,1,.5.5V5.88a.5.5,0,0,1-.5.5ZM2.3,3.22H9.66a.5.5,0,1,1,0,1H2.3a.5.5,0,1,1,0-1Zm.08,3.22H5.69a.5.5,0,1,1,0,1H2.38a.5.5,0,1,1,0-1Zm0,3.22H5.69a.5.5,0,1,1,0,1H2.38a.5.5,0,0,1,0-1ZM7.13,6.44h.69a.5.5,0,1,1,0,1H7.13a.5.5,0,1,1,0-1Zm.34,3.4a3.06,3.06,0,0,1,.37-1A.63.63,0,0,0,8.68,8a3.06,3.06,0,0,1,1.19-.52.63.63,0,0,0,1.25,0A3.06,3.06,0,0,1,12.3,8a.63.63,0,0,0,.84.93,3.06,3.06,0,0,1,.36.95.63.63,0,0,0,0,1.24,3.06,3.06,0,0,1-.42,1,.63.63,0,0,0-.84.88,3.06,3.06,0,0,1-1.13.49.63.63,0,0,0-1.24,0A3.06,3.06,0,0,1,8.74,13a.63.63,0,0,0-.85-.88,3.06,3.06,0,0,1-.42-1,.63.63,0,0,0,0-1.24Zm3,1.66a1,1,0,1,0-1-1,1,1,0,0,0,1,1Zm0,0"/></g></g></svg>