<svg xmlns="http://www.w3.org/2000/svg" viewBox="0 0 15 15"><defs><style>.cls-1{fill:#888;}</style></defs><title>资源 22</title><g id="图层_2" data-name="图层 2"><g id="全屏"><path class="cls-1" d="M10,5.6l4-4V3.86a.3.3,0,0,0,.09.24.32.32,0,0,0,.24.11h.24a.33.33,0,0,0,.24-.08.3.3,0,0,0,.11-.23V.35a.3.3,0,0,0-.08-.24A.36.36,0,0,0,14.65,0H11.13a.36.36,0,0,0-.35.35V.59a.39.39,0,0,0,.4.35h2.15l-4,4A.47.47,0,0,0,10,5.6ZM5,9.37l-4.06,4V11.07a.3.3,0,0,0-.09-.24.32.32,0,0,0-.24-.11H.37a.38.38,0,0,0-.24.08A.3.3,0,0,0,0,11v3.56a.3.3,0,0,0,.08.24A.33.33,0,0,0,.33,15h3.5a.35.35,0,0,0,.35-.35v-.24a.38.38,0,0,0-.39-.35H1.62l4-4.06A.44.44,0,1,0,5,9.37Zm10,5.08V11.07a.3.3,0,0,0-.11-.23.31.31,0,0,0-.24-.08h-.24a.35.35,0,0,0-.24.1.34.34,0,0,0-.09.25v2.26L10,9.37a.47.47,0,0,0-.66.66l4,4H11.17a.38.38,0,0,0-.39.35v.25a.36.36,0,0,0,.35.35h3.51a.31.31,0,0,0,.24-.1.3.3,0,0,0,.09-.25v-.18ZM1.67,1H3.83A.39.39,0,0,0,4.22.59V.35A.37.37,0,0,0,3.87,0H.33A.34.34,0,0,0,.08.11.3.3,0,0,0,0,.35V3.91a.34.34,0,0,0,.11.23.41.41,0,0,0,.24.08H.62a.32.32,0,0,0,.24-.11A.3.3,0,0,0,1,3.87V1.61L5,5.6a.47.47,0,0,0,.66-.66Z"/></g></g></svg>