<svg xmlns="http://www.w3.org/2000/svg" viewBox="0 0 12 11.25"><defs></defs><title>资源 30</title><g id="图层_2" data-name="图层 2"><g id="面标"><path class="cls-1" d="M1.53,0H.34A.35.35,0,0,0,0,.34V1.53a.35.35,0,0,0,.34.34H1.53a.35.35,0,0,0,.34-.34V.34A.35.35,0,0,0,1.53,0ZM11.66,1.94H10.47a.35.35,0,0,0-.34.35V3.47a.35.35,0,0,0,.34.35h1.19A.35.35,0,0,0,12,3.47V2.29c-.05-.19-.16-.35-.34-.35Zm0,5.67H10.47a.35.35,0,0,0-.34.34V9.14a.35.35,0,0,0,.34.35h1.19A.35.35,0,0,0,12,9.14V8c-.05-.18-.16-.34-.34-.34ZM1.53,9.37H.34A.35.35,0,0,0,0,9.71V10.9a.35.35,0,0,0,.34.35H1.53a.35.35,0,0,0,.34-.35V9.71a.35.35,0,0,0-.34-.34ZM1.3,8.25V3A.35.35,0,0,0,1,2.67.35.35,0,0,0,.62,3V8.25A.35.35,0,0,0,1,8.59a.37.37,0,0,0,.34-.34ZM11.38,6.63V4.82a.34.34,0,0,0-.68,0V6.63a.34.34,0,0,0,.68,0ZM9.33,2.33,3.09.87a.35.35,0,0,0-.42.25.34.34,0,0,0,.26.41L9.14,3h.07a.35.35,0,0,0,.34-.27.31.31,0,0,0-.22-.39ZM9,8.53,2.77,10a.34.34,0,0,0-.26.41.37.37,0,0,0,.35.27h.07L9.14,9.21a.33.33,0,0,0,.25-.41A.34.34,0,0,0,9,8.53Z"/></g></g></svg>