<svg 
 xmlns="http://www.w3.org/2000/svg"
 xmlns:xlink="http://www.w3.org/1999/xlink"
 width="24px" height="24px">
<path
 d="M0.055,2.312 C0.055,3.399 0.936,4.281 2.024,4.281 C3.112,4.281 3.993,3.399 3.993,2.312 C3.993,1.224 3.112,0.342 2.024,0.342 C0.936,0.342 0.055,1.224 0.055,2.312 L0.055,2.312 Z"/>
<path
 d="M0.055,10.233 C0.055,11.321 0.936,12.203 2.024,12.203 C3.112,12.203 3.993,11.321 3.993,10.233 C3.993,9.146 3.112,8.264 2.024,8.264 C0.936,8.264 0.055,9.146 0.055,10.233 L0.055,10.233 Z"/>
<path
 d="M0.055,18.155 C0.055,19.243 0.936,20.125 2.024,20.125 C3.112,20.125 3.993,19.243 3.993,18.155 C3.993,17.067 3.112,16.185 2.024,16.185 C0.936,16.185 0.055,17.067 0.055,18.155 L0.055,18.155 Z"/>
<path
 d="M7.361,3.342 L20.075,3.342 C20.619,3.342 21.060,2.901 21.060,2.357 C21.060,1.813 20.619,1.373 20.075,1.373 L7.361,1.373 C6.817,1.373 6.376,1.813 6.376,2.357 C6.376,2.901 6.817,3.342 7.361,3.342 L7.361,3.342 ZM7.360,11.196 L20.028,11.196 C20.572,11.196 21.013,10.756 21.013,10.212 C21.013,9.668 20.572,9.227 20.028,9.227 L7.360,9.227 C6.816,9.227 6.376,9.668 6.376,10.212 C6.376,10.756 6.816,11.196 7.360,11.196 L7.360,11.196 ZM20.075,17.125 L7.361,17.125 C6.817,17.125 6.376,17.566 6.376,18.110 C6.376,18.654 6.817,19.095 7.361,19.095 L20.075,19.095 C20.619,19.095 21.060,18.654 21.060,18.110 C21.060,17.566 20.619,17.125 20.075,17.125 L20.075,17.125 Z"/>
</svg>