<svg xmlns="http://www.w3.org/2000/svg" viewBox="0 0 12 12"><defs></defs><title>资源 27</title><g id="图层_2" data-name="图层 2"><g id="点标"><path class="cls-1" d="M7.5,6A1.5,1.5,0,1,0,6,7.5,1.5,1.5,0,0,0,7.5,6Zm-2-2.52V.32A.32.32,0,0,1,5.79,0h.42a.32.32,0,0,1,.33.32V3.48a2.6,2.6,0,0,1,2,2h3.16a.32.32,0,0,1,.32.32v.43a.32.32,0,0,1-.32.32H8.52a2.57,2.57,0,0,1-2,2v3.16a.32.32,0,0,1-.33.32H5.79a.32.32,0,0,1-.33-.32V8.52a2.59,2.59,0,0,1-2-2H.32A.32.32,0,0,1,0,6.21V5.79a.32.32,0,0,1,.32-.33H3.48a2.58,2.58,0,0,1,2-2Z"/></g></g></svg>