<svg 
 xmlns="http://www.w3.org/2000/svg"
 xmlns:xlink="http://www.w3.org/1999/xlink"
 width="43px" height="43px">
<path fill-rule="evenodd"  fill="rgb(61, 170, 11)"
 d="M42.689,43.012 L42.689,17.114 L25.840,0.359 L0.006,0.359 L42.689,43.012 Z"/>
<path fill-rule="evenodd"  fill="rgb(255, 255, 255)"
 d="M39.322,22.592 L38.862,23.052 L35.126,19.318 C34.753,19.434 34.374,19.532 33.989,19.611 L37.395,23.015 L34.078,26.335 C33.564,26.849 33.057,26.855 32.555,26.354 C32.331,26.139 31.996,25.807 31.548,25.360 C31.668,25.198 31.807,24.997 31.964,24.757 C32.317,25.167 32.609,25.488 32.841,25.720 C33.127,26.006 33.411,26.008 33.692,25.726 L34.133,25.285 L31.000,22.153 L29.596,23.559 L29.105,23.068 L32.320,19.850 C31.669,19.900 31.001,19.906 30.316,19.867 C30.374,19.635 30.425,19.384 30.471,19.115 C31.940,19.245 33.306,19.127 34.569,18.762 L32.869,17.063 L33.329,16.603 L35.262,18.535 C35.639,18.394 36.006,18.230 36.362,18.044 L36.760,18.677 C36.447,18.825 36.130,18.959 35.809,19.082 L39.322,22.592 ZM32.168,20.985 L31.423,21.731 L34.556,24.862 L35.301,24.116 L32.168,20.985 ZM32.591,20.562 L35.724,23.693 L36.463,22.953 L33.330,19.822 L32.591,20.562 ZM26.746,20.574 C26.564,20.400 26.321,20.153 26.019,19.835 C26.164,19.623 26.294,19.426 26.410,19.244 C26.684,19.567 26.899,19.807 27.057,19.965 C27.260,20.168 27.475,20.155 27.703,19.927 L28.858,18.771 L27.696,17.609 L25.956,19.350 L25.496,18.890 L27.236,17.149 L26.049,15.963 C25.191,16.721 24.309,17.181 23.401,17.343 C23.414,17.090 23.414,16.846 23.401,16.610 C24.048,16.461 24.617,16.214 25.110,15.870 C25.541,15.563 26.185,14.981 27.042,14.123 L29.366,11.798 L33.059,15.488 L28.051,20.499 C27.596,20.955 27.161,20.980 26.746,20.574 ZM26.533,15.527 L27.696,16.689 L28.882,15.502 L27.738,14.359 C27.312,14.794 26.910,15.183 26.533,15.527 ZM29.372,12.724 L28.198,13.899 L29.342,15.042 L30.516,13.867 L29.372,12.724 ZM32.139,15.488 L30.976,14.326 L29.802,15.501 L30.965,16.663 L32.139,15.488 ZM30.505,17.123 L29.342,15.962 L28.156,17.149 L29.318,18.311 L30.505,17.123 ZM28.247,12.593 L27.819,13.022 L27.122,12.327 L25.920,13.530 C26.196,13.677 26.479,13.825 26.769,13.974 C26.582,14.168 26.423,14.336 26.290,14.477 C26.006,14.322 25.719,14.170 25.429,14.021 L23.482,15.970 C23.047,16.405 22.635,16.436 22.245,16.063 C22.083,15.918 21.884,15.720 21.648,15.467 C21.797,15.268 21.940,15.071 22.077,14.876 C22.288,15.137 22.456,15.330 22.580,15.454 C22.746,15.620 22.926,15.605 23.121,15.411 L24.823,13.707 C24.494,13.539 24.162,13.374 23.829,13.210 L24.276,12.626 C24.614,12.818 24.963,13.012 25.323,13.207 L26.662,11.867 L25.916,11.121 L26.345,10.692 L27.091,11.438 L28.321,10.207 L28.781,10.667 L27.551,11.898 L28.247,12.593 ZM22.784,11.185 L23.164,10.806 L19.446,7.091 L17.638,8.900 C17.257,9.281 17.247,9.652 17.607,10.012 L20.672,13.075 C21.029,13.431 21.372,13.518 21.704,13.336 C22.031,13.158 22.425,12.876 22.884,12.490 C22.976,12.722 23.092,12.962 23.233,13.211 C22.744,13.584 22.338,13.866 22.015,14.057 C21.422,14.401 20.840,14.287 20.268,13.715 L16.961,10.410 C16.327,9.777 16.337,9.132 16.991,8.477 L20.222,5.245 L20.757,5.779 L19.905,6.631 L23.623,10.346 L25.220,8.748 L20.737,4.269 L21.197,3.809 L26.202,8.810 L23.307,11.707 L22.784,11.185 Z"/>
</svg>