<svg xmlns="http://www.w3.org/2000/svg" viewBox="0 0 17 15.11"><defs><style>.cls-1{fill:#888;}</style></defs><title>资源 23</title><g id="图层_2" data-name="图层 2"><g id="工具箱"><path class="cls-1" d="M15.11,1.89h-3.3V.94a1,1,0,0,0-1-.94H6.14a1,1,0,0,0-.95.94v1H1.89A1.89,1.89,0,0,0,0,3.78v9.44a1.89,1.89,0,0,0,1.89,1.89H15.11A1.89,1.89,0,0,0,17,13.22V3.78a1.89,1.89,0,0,0-1.89-1.89Zm-9-.95h4.72v1H6.14ZM1.89,2.83H15.11a1,1,0,0,1,.95.95V6.61H.94V3.78a1,1,0,0,1,1-.95ZM9.83,7.56a1.41,1.41,0,0,1-2.66,0Zm5.28,6.61H1.89a1,1,0,0,1-.95-.95V7.56H6.19a2.36,2.36,0,0,0,4.62,0h5.25v5.66a1,1,0,0,1-.95.95Z"/></g></g></svg>