<svg xmlns="http://www.w3.org/2000/svg" viewBox="0 0 13.99 14"><title>资源 46</title><g id="图层_2" data-name="图层 2"><g id="图层_54" data-name="图层 54"><path d="M3.88,12.2H2.5a1.28,1.28,0,0,0-.7-.7v-9a1.28,1.28,0,0,0,.7-.7h8.94a1.31,1.31,0,0,0,1.2.8,1.29,1.29,0,0,0,1.3-1.3A1.29,1.29,0,0,0,12.65,0a1.26,1.26,0,0,0-1.2.8H2.5A1.32,1.32,0,0,0,1.3,0,1.29,1.29,0,0,0,0,1.3,1.26,1.26,0,0,0,.8,2.5v9A1.3,1.3,0,0,0,1.3,14a1.26,1.26,0,0,0,1.2-.8H3.88a.5.5,0,1,0,0-1Zm0,0"/><path d="M5.21,12.85a.25.25,0,0,0,.3.3l2.08-.58-1.8-1.8ZM12.9,4.56a.62.62,0,0,0-.85,0l-.88.88,1.75,1.75.88-.88a.6.6,0,0,0,0-.85ZM6.39,10.14l1.7,1.8,4.33-4.23L10.67,6Zm0,0"/></g></g></svg>