<svg 
 xmlns="http://www.w3.org/2000/svg"
 xmlns:xlink="http://www.w3.org/1999/xlink"
 width="14px" height="16px">
<path fill-rule="evenodd"  fill="rgb(89,89,89)"
 d="M13.000,3.000 L13.000,1.000 C13.000,0.448 12.552,-0.000 12.000,-0.000 L2.000,-0.000 C0.895,-0.000 -0.000,0.895 -0.000,2.000 L-0.000,15.000 C-0.000,15.552 0.448,16.000 1.000,16.000 L13.000,16.000 C13.552,16.000 14.000,15.552 14.000,15.000 L14.000,4.000 C14.000,3.448 13.552,3.000 13.000,3.000 L13.000,3.000 ZM1.000,2.000 C1.001,1.448 1.448,1.001 2.000,1.000 L12.000,1.000 L12.000,3.000 L1.000,3.000 L1.000,2.000 ZM13.000,15.000 L1.000,15.000 L1.000,4.000 L13.000,4.000 L13.000,15.000 Z"/>
<path fill-rule="evenodd"  fill="rgb(89,89,89)"
 d="M3.500,8.000 L7.500,8.000 C7.776,8.000 8.000,7.776 8.000,7.500 C8.000,7.224 7.776,7.000 7.500,7.000 L3.500,7.000 C3.224,7.000 3.000,7.224 3.000,7.500 C3.000,7.776 3.224,8.000 3.500,8.000 L3.500,8.000 Z"/>
<path fill-rule="evenodd"  fill="rgb(89,89,89)"
 d="M10.500,10.000 L3.500,10.000 C3.224,10.000 3.000,10.224 3.000,10.500 C3.000,10.776 3.224,11.000 3.500,11.000 L10.500,11.000 C10.776,11.000 11.000,10.776 11.000,10.500 C11.000,10.224 10.776,10.000 10.500,10.000 L10.500,10.000 Z"/>
</svg>