<svg 
 xmlns="http://www.w3.org/2000/svg"
 xmlns:xlink="http://www.w3.org/1999/xlink"
 width="16px" height="16px">
<path fill-rule="evenodd"  fill="rgb(89, 89, 89)"
 d="M9.893,4.962 C10.317,5.295 10.529,5.771 10.529,6.342 C10.529,6.819 10.370,7.200 10.105,7.533 C9.999,7.628 9.681,7.914 9.203,8.295 C8.991,8.438 8.832,8.628 8.779,8.771 C8.673,8.962 8.620,9.200 8.620,9.438 L8.620,9.581 L7.453,9.581 L7.453,9.438 C7.453,9.057 7.506,8.771 7.666,8.485 C7.825,8.200 8.249,7.819 8.885,7.295 L9.097,7.104 C9.310,6.866 9.416,6.628 9.416,6.390 C9.416,6.057 9.310,5.771 9.097,5.581 C8.885,5.390 8.567,5.295 8.196,5.295 C7.719,5.295 7.347,5.438 7.135,5.723 C7.029,5.866 6.923,6.057 6.870,6.295 C6.817,6.533 6.605,6.723 6.287,6.723 C5.916,6.723 5.650,6.390 5.703,6.104 C5.809,5.676 6.022,5.343 6.340,5.057 C6.817,4.628 7.400,4.438 8.249,4.438 C8.885,4.438 9.469,4.628 9.893,4.962 M8.567,10.343 C8.726,10.485 8.779,10.628 8.779,10.819 C8.779,11.009 8.726,11.200 8.567,11.342 C8.408,11.485 8.196,11.533 7.984,11.533 C7.772,11.533 7.559,11.485 7.453,11.342 C7.294,11.200 7.188,11.057 7.188,10.866 C7.188,10.676 7.294,10.485 7.453,10.390 C7.612,10.247 7.772,10.200 7.984,10.200 C8.249,10.152 8.408,10.247 8.567,10.343 "/>
<path fill-rule="evenodd"  fill="rgb(89, 89, 89)"
 d="M8.000,15.988 C3.600,15.988 -0.000,12.388 -0.000,7.988 C-0.000,3.588 3.600,-0.012 8.000,-0.012 C12.400,-0.012 16.000,3.588 16.000,7.988 C16.000,12.388 12.400,15.988 8.000,15.988 M8.000,0.988 C4.150,0.988 1.000,4.138 1.000,7.988 C1.000,11.838 4.150,14.988 8.000,14.988 C11.850,14.988 15.000,11.838 15.000,7.988 C15.000,4.138 11.850,0.988 8.000,0.988 "/>
</svg>