<svg 
 xmlns="http://www.w3.org/2000/svg"
 xmlns:xlink="http://www.w3.org/1999/xlink"
 width="16px" height="13px">
<path fill-rule="evenodd"  fill="rgb(89, 89, 89)"
 d="M0.842,3.660 L15.158,3.660 L15.158,1.223 C15.158,1.115 15.114,1.012 15.034,0.935 C14.956,0.859 14.848,0.816 14.737,0.816 L1.263,0.816 C1.151,0.816 1.044,0.859 0.965,0.935 C0.886,1.012 0.842,1.115 0.842,1.223 L0.842,3.660 ZM0.842,4.472 L0.842,11.784 C0.842,11.892 0.886,11.995 0.965,12.071 C1.044,12.148 1.151,12.190 1.263,12.190 L14.737,12.190 C14.848,12.190 14.956,12.148 15.034,12.071 C15.114,11.995 15.158,11.892 15.158,11.784 L15.158,4.472 L0.842,4.472 ZM1.263,0.004 L14.737,0.004 C15.434,0.004 16.000,0.550 16.000,1.223 L16.000,11.784 C16.000,12.457 15.434,13.003 14.737,13.003 L1.263,13.003 C0.566,13.003 -0.000,12.457 -0.000,11.784 L-0.000,1.223 C-0.000,0.550 0.566,0.004 1.263,0.004 L1.263,0.004 ZM4.232,8.193 L5.705,9.111 C5.901,9.233 5.956,9.485 5.829,9.674 C5.703,9.862 5.442,9.916 5.246,9.794 L3.229,8.534 C3.109,8.460 3.037,8.331 3.037,8.193 C3.037,8.055 3.109,7.927 3.229,7.852 L5.246,6.593 C5.442,6.471 5.703,6.524 5.829,6.713 C5.956,6.901 5.901,7.153 5.705,7.275 L4.232,8.193 ZM10.008,9.111 L11.503,8.193 L10.029,7.275 C9.894,7.201 9.812,7.060 9.817,6.910 C9.822,6.760 9.912,6.625 10.052,6.558 C10.192,6.492 10.358,6.505 10.484,6.593 L12.505,7.852 C12.625,7.927 12.698,8.055 12.698,8.193 C12.698,8.331 12.625,8.460 12.505,8.534 L10.484,9.794 C10.358,9.882 10.192,9.895 10.052,9.828 C9.912,9.762 9.822,9.627 9.817,9.476 C9.812,9.326 9.894,9.186 10.029,9.111 L10.008,9.111 ZM8.029,6.353 C8.115,6.144 8.361,6.043 8.577,6.126 C8.793,6.209 8.899,6.445 8.813,6.654 L7.415,10.058 C7.330,10.266 7.088,10.369 6.872,10.289 C6.767,10.250 6.683,10.173 6.638,10.074 C6.593,9.974 6.590,9.862 6.631,9.761 L8.029,6.353 ZM2.316,1.629 C2.571,1.629 2.802,1.777 2.899,2.005 C2.997,2.233 2.943,2.495 2.762,2.669 C2.582,2.843 2.310,2.895 2.074,2.801 C1.838,2.707 1.684,2.485 1.684,2.238 C1.684,1.902 1.967,1.629 2.316,1.629 L2.316,1.629 ZM4.421,1.629 C4.676,1.629 4.907,1.777 5.005,2.005 C5.102,2.233 5.048,2.495 4.868,2.669 C4.687,2.843 4.415,2.895 4.179,2.801 C3.943,2.707 3.789,2.485 3.789,2.238 C3.789,1.902 4.072,1.629 4.421,1.629 L4.421,1.629 ZM6.526,1.629 C6.782,1.629 7.012,1.777 7.110,2.005 C7.208,2.233 7.154,2.495 6.973,2.669 C6.792,2.843 6.521,2.895 6.285,2.801 C6.049,2.707 5.895,2.485 5.895,2.238 C5.895,1.902 6.177,1.629 6.526,1.629 L6.526,1.629 Z"/>
</svg>