<svg 
 xmlns="http://www.w3.org/2000/svg"
 xmlns:xlink="http://www.w3.org/1999/xlink"
 width="14px" height="16px">
<path fill-rule="evenodd"  fill="rgb(89, 89, 89)"
 d="M9.757,-0.000 L2.072,-0.000 C1.456,0.073 0.951,0.587 0.879,1.212 L0.879,14.788 C0.951,15.449 1.456,15.926 2.072,16.000 L12.684,16.000 C13.298,15.926 13.804,15.449 13.912,14.825 L13.912,4.223 L9.757,-0.000 ZM12.912,14.470 C12.912,14.777 12.649,15.045 12.309,15.084 L2.443,15.084 C2.142,15.045 1.916,14.777 1.840,14.470 L1.840,1.493 C1.840,1.149 2.105,0.880 2.443,0.920 L9.859,0.920 L9.859,3.447 C9.859,3.753 10.122,4.022 10.463,4.060 L12.912,4.060 L12.912,14.472 L12.912,14.470 ZM10.916,12.497 L3.874,12.497 C3.733,12.499 3.597,12.442 3.497,12.341 C3.397,12.239 3.342,12.101 3.344,11.957 C3.344,11.654 3.576,11.420 3.874,11.420 L10.916,11.420 C11.214,11.420 11.446,11.654 11.446,11.957 C11.439,12.251 11.206,12.488 10.916,12.495 L10.916,12.497 ZM3.874,8.853 L8.202,8.853 C8.499,8.853 8.731,9.089 8.731,9.391 C8.733,9.534 8.678,9.672 8.578,9.773 C8.478,9.875 8.343,9.931 8.202,9.929 L3.874,9.929 C3.733,9.931 3.598,9.875 3.498,9.773 C3.398,9.672 3.343,9.534 3.344,9.391 C3.344,9.122 3.576,8.853 3.874,8.853 L3.874,8.853 ZM10.916,7.478 L3.874,7.478 C3.733,7.480 3.597,7.423 3.497,7.322 C3.398,7.221 3.342,7.083 3.344,6.939 C3.344,6.636 3.576,6.400 3.874,6.400 L10.916,6.400 C11.214,6.400 11.446,6.636 11.446,6.939 C11.439,7.233 11.206,7.470 10.916,7.478 L10.916,7.478 Z"/>
</svg>